<svg width="312" height="112" viewBox="0 0 312 112" fill="none" xmlns="http://www.w3.org/2000/svg">
<g clip-path="url(#clip0_13_97)">
<path fill-rule="evenodd" clip-rule="evenodd" d="M73.5868 8.24982C75.829 8.24468 77.0158 9.26326 78.7083 9.7913C79.6999 10.7456 80.6751 12.0229 80.8276 13.9019C81.0718 16.9114 79.7971 19.5228 78.5317 21.2668C78.2274 21.686 78.0669 22.1805 77.8253 22.4657C73.9001 27.0958 66.9005 28.5234 60.6948 28.9742C65.1193 27.21 70.4131 24.5246 73.4102 20.2391C74.4882 18.6976 76.1972 15.7467 75.7061 12.5317C75.4359 10.7566 74.2597 9.93398 73.5868 8.24931V8.24982Z" fill="black"/>
<path fill-rule="evenodd" clip-rule="evenodd" d="M56.8096 16.9849C53.3577 18.5549 49.3013 18.7334 46.0368 20.0678C43.99 20.9045 41.8015 22.0392 40.0323 23.3221C38.3585 24.5359 36.8854 26.6107 35.9705 28.9741C35.4848 30.2282 35.2517 31.3837 35.0874 33.256C28.509 34.1266 20.5938 33.701 17.074 37.5379C16.7985 40.4313 17.9803 41.9114 19.1932 43.3613C20.3898 46.6034 21.2679 49.9398 22.372 53.124C23.4816 56.3239 25.0379 59.2611 26.0807 62.3729C21.794 62.708 15.8266 63.2474 11.5993 64.942C9.37584 65.8333 7.539 66.7799 7.53741 69.0526C1.65018 52.9916 8.09264 36.6576 17.074 27.9465C20.5463 24.5789 24.4869 21.8481 29.2595 19.7253C29.4639 19.6343 29.8339 19.5182 30.1426 19.3827C30.8778 19.0604 32.1633 18.3546 33.3214 18.0125C38.5015 16.4832 45.5111 14.8552 52.7477 15.9572C54.0793 16.1593 55.2219 16.7689 56.8096 16.9844V16.9849ZM34.7342 18.6981C30.8456 19.878 27.6528 21.448 24.6679 23.3226C23.4981 24.0573 22.3457 25.0417 21.489 25.7204C21.136 26.0001 20.594 26.1241 20.2528 26.4055C19.1082 27.3494 18.115 28.6172 17.074 29.6598C15.9495 30.7857 14.5801 31.8569 14.2483 33.4278C21.6264 33.9036 27.1831 32.6129 33.498 32.0576C34.1486 28.521 35.7509 25.9073 37.5599 23.4938C40.1732 21.5153 43.0296 19.386 46.39 18.1843C47.2261 17.8853 48.5569 18.191 48.6859 16.8141C43.1688 16.568 38.7855 17.4684 34.7342 18.6981V18.6981ZM13.0121 34.2842C11.7685 37.0746 9.87351 39.2332 9.12683 42.5054C11.9057 42.4366 14.4827 42.5637 17.074 42.6767C17.0035 41.2909 15.6912 40.9653 15.4845 39.765C15.076 37.3928 17.1557 35.881 18.4868 34.6267C16.4735 34.6953 15.1797 34.0667 13.0126 34.2842H13.0121ZM8.59702 43.8756C7.97185 45.7244 7.34756 47.5736 7.1842 49.8703C11.2001 49.9146 15.4411 49.7411 19.1932 50.0415C18.8133 47.8408 18.5655 45.512 17.6038 43.8756H8.59755H8.59702ZM6.65439 51.583C6.76724 53.2911 6.34905 54.4841 6.47779 56.2075C11.2779 55.8659 17.015 56.0129 21.8422 56.2075C21.3002 54.5063 20.5045 53.0517 19.8996 51.4117C14.6983 51.5813 10.6227 51.3535 6.65492 51.583H6.65439ZM6.47779 57.9202C6.48432 59.7796 7.04539 60.4121 7.0076 62.0308C12.6963 61.9529 18.8485 62.3246 23.7849 61.517C23.7492 59.8388 22.5614 59.2781 22.372 57.7489C17.7662 58.1138 10.1004 57.6804 6.47832 57.9202H6.47779ZM7.71401 65.1138C8.80047 64.8545 10.3844 65.0775 10.7163 64.0861H7.3608C7.22093 64.677 7.55701 64.8089 7.71401 65.1138Z" fill="black"/>
<path fill-rule="evenodd" clip-rule="evenodd" d="M48.6859 16.8136C48.5569 18.1905 47.2261 17.8848 46.39 18.1838C43.0296 19.3855 40.1733 21.5148 37.5599 23.4933C35.7509 25.9068 34.1486 28.5205 33.498 32.0571C27.1831 32.6124 21.6264 33.9031 14.2483 33.4273C14.5801 31.8564 15.9495 30.7852 17.074 29.6593C18.115 28.6167 19.1082 27.3489 20.2528 26.405C20.594 26.1236 21.136 25.9996 21.489 25.7199C22.3457 25.0412 23.4981 24.0568 24.6679 23.3221C27.6528 21.4475 30.8456 19.8775 34.7342 18.6976C38.7855 17.4679 43.1688 16.5675 48.6859 16.8131V16.8136Z" fill="white"/>
<path fill-rule="evenodd" clip-rule="evenodd" d="M79.9445 33.4278C70.4797 33.3275 62.1606 33.6077 53.1009 33.2566C55.8467 32.0235 59.4108 32.3109 62.9907 31.8863C66.5192 31.4679 69.8699 30.7593 72.7038 29.6598C73.6467 29.2939 74.5103 28.6974 75.5295 28.4608C76.3667 28.2664 77.5876 29.9876 78.1785 30.6874C78.9838 31.6397 79.6531 32.443 79.9445 33.4278Z" fill="white"/>
<path fill-rule="evenodd" clip-rule="evenodd" d="M18.4868 34.6268C17.1557 35.881 15.076 37.3928 15.4845 39.765C15.6912 40.9653 17.0035 41.2909 17.074 42.6767C14.4827 42.5636 11.9057 42.4366 9.12683 42.5054C9.87351 39.2332 11.7685 37.0746 13.0121 34.2842C15.1797 34.0667 16.4735 34.6953 18.4868 34.6268Z" fill="white"/>
<path fill-rule="evenodd" clip-rule="evenodd" d="M58.9288 34.2842H80.8276C82.4594 36.755 84.0149 39.3002 85.066 42.3341C80.068 42.6678 72.6733 42.5054 66.5227 42.5054C64.4858 42.5054 62.4942 42.6959 61.4012 41.3065C62.1451 39.2565 61.9404 38.4781 61.4012 36.5108C60.7566 35.5945 59.2802 35.4848 58.9288 34.2842Z" fill="white"/>
<path fill-rule="evenodd" clip-rule="evenodd" d="M19.723 37.7097H20.2528C21.2344 39.9293 24.3235 40.9126 26.9637 40.9639C26.8429 41.562 25.796 41.3312 25.1977 41.3065C24.431 41.2748 23.3866 41.1003 22.7252 40.9639C22.2943 40.8751 21.5692 40.7339 21.3124 40.6214C20.5483 40.2866 19.9372 39.2721 19.5464 38.3948C19.5252 38.0865 19.7636 38.0334 19.723 37.7097Z" fill="white"/>
<path fill-rule="evenodd" clip-rule="evenodd" d="M21.1358 40.7927C28.4595 43.9864 41.2138 43.2856 50.2753 42.848C46.44 44.1183 40.2751 44.0305 34.381 44.0469C32.3693 44.0526 30.1339 43.7032 27.8467 43.3618C24.9028 42.9216 21.595 43.0723 21.1358 40.7927V40.7927Z" fill="white"/>
<path fill-rule="evenodd" clip-rule="evenodd" d="M85.5958 43.7043C86.0744 45.7523 86.908 47.456 87.0086 49.8703C80.5506 49.7675 72.8197 50.0827 67.2291 49.699C67.064 47.233 66.0771 45.5637 64.9333 44.0469C64.9008 43.9011 65.0022 43.8854 65.1099 43.8756C65.2529 43.8431 65.286 43.7038 65.4631 43.7043C69.396 43.7215 79.307 44.1051 85.5958 43.7043V43.7043Z" fill="white"/>
<path fill-rule="evenodd" clip-rule="evenodd" d="M17.6043 43.8756C18.5661 45.512 18.8138 47.8408 19.1937 50.0415C15.4416 49.7411 11.2007 49.9146 7.18473 49.8703C7.34809 47.5736 7.97238 45.7244 8.59755 43.8756H17.6048H17.6043Z" fill="white"/>
<path fill-rule="evenodd" clip-rule="evenodd" d="M23.9615 43.8756C24.782 43.7079 25.0276 44.0976 25.5509 44.2182C27.0612 44.4458 28.9821 44.4165 30.849 44.732C31.566 44.8533 32.6018 45.0184 32.9682 45.5884C29.9494 45.3762 26.5923 45.4918 23.9615 44.9033V43.8756Z" fill="white"/>
<path fill-rule="evenodd" clip-rule="evenodd" d="M24.1381 45.7596C25.5168 45.9996 27.055 46.4747 28.7297 46.616C29.6965 46.6976 31.2011 46.1861 31.732 47.3011C28.7855 47.3006 26.5453 47.7345 24.1381 46.7873V45.7596Z" fill="white"/>
<path fill-rule="evenodd" clip-rule="evenodd" d="M49.9221 64.7712C51.4702 59.8212 53.9527 55.7775 55.3968 50.7266C58.0908 50.1422 57.6287 46.4968 61.5779 47.1298C62.3371 47.8819 62.7987 48.3903 62.6375 50.0415C62.3217 53.2761 59.5309 55.8091 57.1628 57.7489C56.9874 57.8926 56.9837 58.2758 56.8096 58.434C56.6831 58.5488 56.1256 58.6163 55.9266 58.7766C55.2228 59.3433 53.7914 60.1072 52.9243 60.8319C51.5804 61.9555 51.1018 63.884 49.9221 64.7712ZM58.7522 54.666C58.9581 54.4383 58.9032 54.0912 59.1054 53.8096C59.3781 53.4299 59.9702 53.2283 60.165 52.9532C60.6572 52.2578 61.5669 50.1508 61.048 49.5277C60.7404 49.5406 60.4988 49.4895 60.3416 49.3564C57.5665 51.0074 55.0411 53.8029 54.867 57.4064C55.757 56.759 57.5796 55.9625 58.7522 54.666Z" fill="white"/>
<path fill-rule="evenodd" clip-rule="evenodd" d="M24.6679 47.9862C26.5097 48.0981 28.2843 48.3415 30.1426 48.5001C31.0056 48.5737 32.2321 48.354 32.615 49.1852C30.0304 48.9514 26.417 49.7155 24.6679 48.6713V47.9862Z" fill="white"/>
<path fill-rule="evenodd" clip-rule="evenodd" d="M54.8669 57.4064C55.0411 53.8029 57.5665 51.0074 60.3416 49.3564C60.4988 49.4895 60.7404 49.5406 61.0481 49.5277C61.5669 50.1508 60.6572 52.2578 60.165 52.9532C59.9702 53.2283 59.3781 53.4299 59.1054 53.8096C58.9032 54.0912 58.9581 54.4383 58.7522 54.666C57.5796 55.9625 55.757 56.759 54.8669 57.4064Z" fill="black"/>
<path fill-rule="evenodd" clip-rule="evenodd" d="M25.0211 49.8703C27.8956 50.5992 30.8108 50.263 33.1448 50.8979C32.9221 51.5371 31.9331 51.2273 31.3788 51.2405C29.6232 51.2821 27.2881 51.2093 25.3743 51.2405C25.2012 50.838 25.0652 50.3978 25.0211 49.8703Z" fill="white"/>
<path fill-rule="evenodd" clip-rule="evenodd" d="M19.8996 51.4118C20.5045 53.0517 21.3002 54.5064 21.8422 56.2075C17.015 56.0129 11.2779 55.866 6.47779 56.2075C6.34905 54.4841 6.76724 53.2912 6.65439 51.583C10.6227 51.3535 14.6983 51.5813 19.8996 51.4118Z" fill="white"/>
<path fill-rule="evenodd" clip-rule="evenodd" d="M87.5384 51.4118C87.4258 53.0637 87.7104 55.0467 87.5384 56.2075C80.7862 55.9377 72.7999 56.0614 65.2865 56.0362C65.7181 54.5607 66.8962 53.3203 66.8759 51.9256C67.0278 51.7874 66.9808 51.4565 67.2291 51.4118H87.5384Z" fill="white"/>
<path fill-rule="evenodd" clip-rule="evenodd" d="M25.7275 52.0968C28.575 52.456 30.8571 52.3416 33.3214 52.9532C33.187 53.5859 32.2259 53.28 31.732 53.2958C30.0926 53.3477 27.8617 53.2569 26.0807 53.2958C26.1001 52.7631 25.5262 52.8059 25.7275 52.0968Z" fill="white"/>
<path fill-rule="evenodd" clip-rule="evenodd" d="M26.4339 54.1522C28.794 54.5845 30.6529 54.4803 32.9682 54.8373C32.5783 55.6332 31.081 55.3456 29.966 55.3511C28.77 55.3569 27.5857 55.3965 26.7871 55.1798C26.9761 54.5393 26.3491 54.6917 26.4339 54.1522Z" fill="white"/>
<path fill-rule="evenodd" clip-rule="evenodd" d="M27.3169 56.0362C28.6642 56.396 29.9868 56.4133 31.5554 56.55C32.1108 56.5983 33.0475 56.5464 33.3214 57.0638C32.8734 57.696 31.6128 57.4016 30.6724 57.4064C29.6329 57.4117 28.5452 57.4023 27.6701 57.4064C27.7178 56.7898 27.3452 56.5808 27.3169 56.0362Z" fill="white"/>
<path fill-rule="evenodd" clip-rule="evenodd" d="M22.372 57.749C22.5614 59.2781 23.7492 59.8389 23.7849 61.517C18.8485 62.3246 12.6963 61.9529 7.0076 62.0308C7.04539 60.4121 6.48433 59.7796 6.47779 57.9202C10.1004 57.6805 17.7662 58.1138 22.372 57.749Z" fill="white"/>
<path fill-rule="evenodd" clip-rule="evenodd" d="M87.5384 57.9202C87.6757 59.4235 87.2794 60.4094 87.3618 61.8595C79.0576 62.3061 69.8713 61.4497 59.6352 62.0308C59.8207 61.1522 60.8079 60.6815 61.4013 60.1468C62.1615 59.4619 62.8582 58.7435 63.5205 57.9202C72.1811 57.7421 79.3035 58.3844 87.5384 57.9202Z" fill="white"/>
<path fill-rule="evenodd" clip-rule="evenodd" d="M28.1999 58.2628C28.3502 58.2313 28.3665 58.3296 28.3765 58.4341C29.1617 58.3388 30.0747 58.7055 31.0256 58.7766C32.2745 58.87 33.8283 58.346 34.381 59.2904C32.808 59.6337 30.2838 59.8269 28.5531 59.4617C28.5249 58.9753 28.23 58.7475 28.1999 58.2628Z" fill="white"/>
<path fill-rule="evenodd" clip-rule="evenodd" d="M29.4362 60.6607C31.3341 61.1608 34.1142 60.8054 36.1471 61.1745C35.4714 61.9332 33.996 61.7623 32.7916 61.8596C31.8148 61.9385 30.9087 62.1476 29.966 62.0308C29.7417 61.6198 29.3214 61.3988 29.4362 60.6607Z" fill="white"/>
<path fill-rule="evenodd" clip-rule="evenodd" d="M30.1426 62.8872C32.05 63.2637 34.8126 62.8111 36.6769 63.2297C36.1667 63.9979 34.7245 63.8191 33.6746 63.9149C32.4811 64.0236 31.3376 64.2139 30.3192 63.9149C30.4481 63.3907 30.0154 63.4096 30.1426 62.8872Z" fill="white"/>
<path fill-rule="evenodd" clip-rule="evenodd" d="M86.3022 64.0861C86.3926 64.8017 86.2037 65.2465 85.949 65.6276C82.9729 64.4604 78.2721 64.966 74.823 64.2574C75.4496 63.953 76.3065 63.7628 77.1189 63.7436C77.7214 63.7292 78.267 64.0472 78.8849 64.0861C80.9282 64.2146 83.4289 63.9405 86.3022 64.0861Z" fill="white"/>
<path fill-rule="evenodd" clip-rule="evenodd" d="M72.5272 63.9148C71.8185 64.6464 70.3386 64.7346 69.1718 65.1138C67.6826 65.5976 66.6015 66.4057 64.5801 66.1414C62.772 65.9051 61.5978 64.366 59.8118 64.2574C59.8901 64.1048 59.9669 63.9512 60.165 63.9148C63.4852 63.9594 67.8313 64.3036 72.5272 63.9148Z" fill="white"/>
<path fill-rule="evenodd" clip-rule="evenodd" d="M7.36133 64.0861H10.7168C10.3849 65.0775 8.801 64.8545 7.71454 65.1138C7.55754 64.8089 7.22146 64.677 7.36133 64.0861Z" fill="white"/>
<path fill-rule="evenodd" clip-rule="evenodd" d="M30.6724 64.7712C32.1633 64.9809 34.541 65.0473 36.5003 65.285C35.5104 66.3182 32.0061 66.3916 30.6724 65.6276V64.7712Z" fill="white"/>
<path fill-rule="evenodd" clip-rule="evenodd" d="M61.048 67.3404C59.635 68.0162 57.8395 68.9166 55.9266 69.3957C54.5687 69.7356 52.581 69.4875 52.0413 70.9371C52.8491 71.2956 54.2407 71.0879 54.6903 71.7935C54.1416 72.603 52.7152 72.3748 51.6881 72.6499C50.898 72.8614 49.1268 73.2293 47.8028 73.335C49.3126 72.3443 50.6025 71.1404 50.6285 68.7106C52.7073 68.5785 54.2804 68.9368 56.2798 68.8818C56.4246 67.1429 54.0613 67.8362 52.7477 67.5116C52.5784 66.9903 53.4829 66.2214 53.6307 65.4563C56.361 65.8348 58.9006 66.3966 61.048 67.3404Z" fill="black"/>
<path fill-rule="evenodd" clip-rule="evenodd" d="M86.832 68.0255C85.6391 72.9945 82.5065 78.0158 79.4147 81.7275C79.1788 82.0106 78.9409 82.2958 78.7083 82.5839C77.677 83.8604 76.2643 85.3121 74.8231 86.5232C73.9081 87.2921 73.0208 87.7577 71.9974 88.5785C71.4676 89.0033 70.9767 89.7759 70.0548 89.9487C69.1117 90.1253 67.8854 89.6123 66.5227 89.4349C65.1828 89.2603 64.1132 89.3679 63.3439 88.5785C63.5293 85.74 67.7371 87.2977 69.7016 86.5232C69.3403 85.876 68.4203 86.082 67.759 86.0094C65.4822 85.7598 63.1376 85.9551 59.9884 85.6668C58.9343 85.5704 57.6278 85.5474 56.633 85.3243C54.9342 84.9432 53.6115 83.4728 52.2179 82.5839C49.8241 82.3383 47.3672 82.2667 45.3304 81.8988C44.1067 81.6776 42.6745 81.3709 42.1516 80.186C43.0621 78.9706 46.1966 79.5288 47.9794 79.3296C50.1617 79.0859 52.3339 78.2837 54.3371 77.7882C56.1549 77.3386 57.6617 77.1031 59.282 76.5892C60.5507 76.1869 61.8129 75.7628 63.1673 75.219C63.8363 74.9505 64.5146 74.7792 65.1099 74.5339C65.704 74.2892 66.2612 73.7479 66.8759 73.5063C67.4481 73.2814 68.1833 73.3497 68.8186 73.1637C69.0828 73.0865 69.2684 72.889 69.525 72.8212C70.3345 72.6071 71.2875 72.3993 72.174 72.1361C72.6454 71.9961 73.32 71.9382 73.5868 71.451C73.4503 70.9049 72.5023 71.2268 72.174 71.2797C70.9193 71.482 69.3775 72.2239 67.759 72.1361C67.4312 71.8831 66.7269 71.9951 66.6993 71.451C63.5457 71.8773 58.817 73.0478 56.1032 71.7935C56.3834 71.266 57.4464 71.4976 57.6926 70.9371C57.8494 70.3122 57.3805 70.0249 57.6926 69.7382C59.6797 69.5743 61.5056 68.2385 63.6971 68.0255C64.816 67.9165 65.9332 68.1591 67.0525 68.0255C69.7904 67.6987 72.2865 66.4144 74.8231 66.484C78.4505 67.3626 83.7733 66.5953 86.832 68.0255V68.0255ZM66.6993 81.2137C64.9746 81.2137 63.0281 81.3707 62.1077 81.5562C59.9916 81.9827 57.4598 82.0762 55.5734 82.4126C54.9388 82.5256 53.9189 82.4537 53.6307 83.0977C59.5363 82.6957 64.9105 82.6563 70.0548 81.7275C69.3166 80.8694 67.7925 81.2137 66.6993 81.2137Z" fill="black"/>
<path fill-rule="evenodd" clip-rule="evenodd" d="M31.0256 66.6553C33.2435 67.1374 35.1869 66.7325 37.2067 67.5116C36.7939 68.0816 34.7856 68.1753 33.3214 68.0254C32.4347 67.9347 31.5706 67.5759 31.0256 67.3404V66.6553Z" fill="white"/>
<path fill-rule="evenodd" clip-rule="evenodd" d="M30.6724 68.5393C34.442 69.8483 38.6338 69.7906 42.858 69.9095C41.9702 70.8325 40.1531 70.51 38.6195 70.5946C35.9595 70.7412 33.0004 70.8726 31.0256 69.9095C30.9726 69.3905 30.4799 69.2963 30.6724 68.5393Z" fill="white"/>
<path fill-rule="evenodd" clip-rule="evenodd" d="M8.24435 71.1084C9.66088 72.475 11.3208 73.6056 13.3658 74.3626C13.2955 75.0938 11.8859 74.5259 11.2466 74.7052C11.3277 75.6541 12.1766 75.8586 12.3062 76.7605C14.5074 76.7728 16.8338 76.1792 19.1937 76.7605C20.454 77.0709 21.4975 78.1896 22.7258 78.6445C23.9763 79.1078 25.4995 79.0982 26.9642 79.3296C30.9786 79.9637 35.3036 80.5787 40.2094 80.3573C41.2173 81.4593 41.8882 82.167 43.7415 82.7551C45.4856 83.3085 47.8899 83.3755 50.2758 83.6115C51.301 83.7129 52.047 84.4172 53.1014 85.153C54.2451 85.9511 55.06 86.6909 56.9867 86.8658C57.8964 86.9483 58.9447 86.9473 59.989 86.6945C61.0353 87.6543 60.8806 89.0761 61.9316 89.9487C63.2973 91.0827 65.4802 90.9066 67.7595 91.3189C60.2962 96.054 49.9685 97.6739 40.7393 96.2859C39.7084 96.1309 39.2341 96.0273 38.0902 95.7721C35.1056 95.1061 32.2153 94.2056 29.6133 93.0317C27.1564 91.923 25.1564 90.9584 22.9024 89.4349C16.6727 85.2232 11.1495 78.3842 8.24488 71.1084H8.24435ZM18.84 84.1253C21.1238 84.7329 24.6795 83.9101 26.9637 83.9541C32.7766 84.0659 39.0727 84.3687 44.624 83.9541C42.7449 84.0065 41.8769 83.0787 40.7387 82.4126C32.8981 82.7377 22.6369 82.457 17.2506 82.4126C17.5759 83.3752 18.0541 83.9164 18.84 84.1253ZM53.1009 91.1476C44.9065 91.1476 35.4765 91.1935 29.7894 90.9764C29.6122 90.9758 29.5792 91.1153 29.4361 91.1476C29.4286 91.3835 29.5193 91.5236 29.6127 91.6615C32.0742 92.4861 34.9447 92.1753 37.7365 92.1753C46.3549 92.1753 55.4303 92.3159 63.5205 92.004C61.1363 90.7314 57.1663 91.1476 53.1009 91.1476Z" fill="black"/>
<path fill-rule="evenodd" clip-rule="evenodd" d="M70.0548 81.7275C64.9105 82.6563 59.5363 82.6957 53.6307 83.0977C53.9189 82.4537 54.9388 82.5256 55.5734 82.4126C57.4598 82.0762 59.9916 81.9827 62.1077 81.5562C63.0281 81.3707 64.9746 81.2137 66.6993 81.2137C67.7925 81.2137 69.3166 80.8694 70.0548 81.7275Z" fill="white"/>
<path fill-rule="evenodd" clip-rule="evenodd" d="M17.2511 82.4126C22.6376 82.457 32.8986 82.7377 40.7393 82.4126C41.8775 83.0787 42.7455 84.0065 44.6245 83.9541C39.0732 84.3688 32.7771 84.0659 26.9642 83.9541C24.6801 83.9101 21.1243 84.7329 18.8405 84.1254C18.0546 83.9164 17.5764 83.3752 17.2516 82.4126H17.2511Z" fill="white"/>
<path fill-rule="evenodd" clip-rule="evenodd" d="M63.5205 92.004C55.4308 92.3159 46.3549 92.1753 37.7365 92.1753C34.9447 92.1753 32.0742 92.4861 29.6127 91.6615C29.5193 91.5236 29.4285 91.3835 29.4361 91.1477C29.5792 91.1153 29.6122 90.9759 29.7893 90.9764C35.4765 91.1936 44.9065 91.1477 53.1009 91.1477C57.1663 91.1477 61.1363 90.7315 63.5205 92.004Z" fill="white"/>
<path fill-rule="evenodd" clip-rule="evenodd" d="M70.408 15.6147C69.1974 15.9946 68.4843 17.1053 67.5823 17.8412C64.9789 19.9652 61.9459 21.8638 57.6926 22.637C53.6074 24.4852 47.8548 24.354 43.9176 26.2337C43.013 26.6655 42.3833 27.5094 41.4451 27.7752C40.6075 29.1953 38.8516 30.6206 38.4429 32.9135C38.1603 34.4983 38.0888 36.6276 38.4429 38.0517C38.5893 38.6406 39.2802 39.2572 38.7961 39.7645C37.0899 39.7597 36.209 37.188 35.9705 35.6539C35.6128 33.3535 36.815 31.2735 37.2067 29.6592C37.6665 27.7641 39.3478 26.1584 40.7387 24.8635C41.5795 24.081 42.6686 23.8616 44.0942 23.1508C45.7373 22.3314 47.0256 21.5524 49.2157 20.9242C53.5928 19.6684 59.1001 18.5824 62.9907 16.6423C65.1903 15.5455 66.5925 13.8281 68.2888 12.3604C69.1797 10.7835 70.5724 8.37417 70.0548 4.99559C69.8533 3.68105 69.0957 2.41635 68.2888 1.74136C68.8002 1.59338 69.6062 2.09093 70.0548 2.42646C70.6662 2.88376 72.4915 4.99371 72.7038 5.85197C73.5167 9.13737 71.7632 12.1273 71.1144 14.587C72.3238 13.7044 72.7427 12.0556 73.057 10.3051C75.0768 12.3411 73.611 17.8019 71.9974 20.2391C71.2041 21.4375 69.86 22.7144 68.642 23.8359C66.7777 25.5522 63.5901 27.0209 60.8714 28.1178C57.3532 29.5373 53.1896 29.8494 49.7455 31.2007C51.5853 28.9738 54.894 28.263 57.6926 26.7476C58.1774 26.4852 58.9459 25.9268 59.6352 25.5486C61.3114 24.6291 62.9428 23.7033 64.5801 22.637C66.9589 21.0869 69.585 18.8552 70.408 15.6142V15.6147Z" fill="black"/>
<path fill-rule="evenodd" clip-rule="evenodd" d="M65.4631 20.7534C63.7227 23.0146 58.861 25.3491 55.3968 26.9194C53.2839 27.877 51.05 29.1024 49.0391 30.1736C46.9781 31.5431 45.3889 33.3703 43.5644 34.9693C43.4616 36.0115 42.5931 37.3466 43.3878 38.2235C43.0082 38.5803 42.6628 37.4509 42.3282 37.1959C42.2035 36.0374 42.3531 35.0157 42.6814 34.1129C43.8936 30.7791 47.1201 28.5268 50.6285 27.0906C55.5186 25.0884 61.3553 23.5298 65.4631 20.7534V20.7534Z" fill="black"/>
<path fill-rule="evenodd" clip-rule="evenodd" d="M51.6881 77.2743C50.4008 78.7867 46.843 78.5608 43.741 78.8158C39.028 79.2032 33.9386 79.1794 29.0829 78.4733C26.3528 78.0762 23.5885 77.3821 21.3124 76.418C22.1368 76.0012 23.2148 76.4053 24.1381 76.5892C29.6177 77.6813 38.158 78.3542 45.507 77.9594C47.5909 77.8464 50.1711 77.634 51.6881 77.2743Z" fill="black"/>
<path fill-rule="evenodd" clip-rule="evenodd" d="M73.7634 7.0509C75.075 7.05792 76.2984 6.95704 78.0019 7.22218C79.9544 8.46033 81.4677 9.29529 82.417 11.6753C83.8563 15.2839 81.8492 20.7161 79.5913 23.1508C83.1465 26.4491 86.2971 30.4456 88.7747 34.9688C90.0162 37.2355 90.8693 39.8359 91.7769 42.5049C92.9617 45.9892 93.6092 49.1264 93.8961 53.2953C94.8353 66.9357 89.2485 78.5704 82.2404 86.694C78.9697 90.4852 74.4663 93.7357 70.0548 96.1142C64.3583 99.1855 57.775 101.529 49.5688 101.938C29.9924 102.912 14.2077 92.3812 6.65437 79.6717C4.6969 76.3782 2.78447 72.6778 1.70949 68.5388C1.15054 66.3865 0.571815 64.1451 0.296668 61.6878C-1.26945 47.6968 3.53185 35.6539 10.5396 27.4327C15.7974 21.2639 22.1506 16.4147 30.8489 13.3881C40.2319 10.1234 54.33 9.16787 63.8737 13.5594C65.2969 12.8306 67.4995 10.9483 68.4653 9.10621C69.5174 7.09954 69.0172 4.02138 67.4057 2.25519C66.5292 1.97686 65.3469 1.42416 64.2269 1.91264C64.4879 0.0642316 66.5328 -0.0849492 67.7589 0.0286064C70.3098 0.264624 72.2298 2.55937 73.057 4.48177C73.4261 5.33866 73.525 6.23563 73.7634 7.05039V7.0509ZM64.5801 22.6375C62.9428 23.7038 61.3113 24.6296 59.6352 25.5492C58.9459 25.9273 58.1773 26.4857 57.6926 26.7481C54.8939 28.2635 51.5853 28.9743 49.7454 31.2013C53.1895 29.8499 57.3531 29.5378 60.8714 28.1183C63.59 27.0215 66.7777 25.5528 68.6419 23.8364C69.86 22.7149 71.2041 21.438 71.9974 20.2396C73.611 17.8024 75.0768 12.3416 73.057 10.3056C72.7427 12.0561 72.3238 13.705 71.1144 14.5875C71.7632 12.1278 73.5167 9.13789 72.7038 5.85249C72.4915 4.99423 70.6662 2.88428 70.0548 2.42698C69.6062 2.09145 68.8002 1.59389 68.2887 1.74187C69.0956 2.41687 69.8533 3.68157 70.0548 4.99611C70.5724 8.37469 69.1797 10.784 68.2887 12.361C66.5925 13.8286 65.1902 15.546 62.9906 16.6428C59.1001 18.5829 53.5927 19.6689 49.2156 20.9247C47.0256 21.553 45.7373 22.3319 44.0942 23.1513C42.6686 23.8621 41.5795 24.0815 40.7387 24.8641C39.3478 26.1589 37.6665 27.7646 37.2066 29.6598C36.8149 31.2741 35.6128 33.354 35.9704 35.6544C36.209 37.1885 37.0899 39.7602 38.7961 39.765C39.2801 39.2577 38.5893 38.6411 38.4429 38.0523C38.0888 36.6281 38.1603 34.4988 38.4429 32.914C38.8515 30.6211 40.6075 29.1958 41.4451 27.7757C42.3832 27.5099 43.013 26.6661 43.9176 26.2343C47.8547 24.3545 53.6074 24.4857 57.6926 22.6375C61.9459 21.8643 64.9788 19.9658 67.5823 17.8418C68.4842 17.1058 69.1974 15.9951 70.408 15.6152C69.585 18.8557 66.9589 21.0874 64.5801 22.6375ZM75.706 12.5317C76.1972 15.7467 74.4882 18.6976 73.4102 20.2391C70.4131 24.5246 65.1192 27.21 60.6948 28.9742C66.9005 28.5234 73.9001 27.0958 77.8253 22.4657C78.0669 22.1805 78.2274 21.686 78.5317 21.2668C79.7971 19.5228 81.0718 16.9114 80.8275 13.9019C80.6751 12.0229 79.6999 10.7457 78.7083 9.79131C77.0157 9.26327 75.829 8.24469 73.5868 8.24983C74.2597 9.93398 75.4358 10.7566 75.706 12.5312V12.5317ZM52.7477 15.9572C45.511 14.8552 38.5015 16.4832 33.3214 18.0125C32.1632 18.3546 30.8777 19.0604 30.1425 19.3827C29.8338 19.5182 29.4639 19.6343 29.2595 19.7253C24.4868 21.8481 20.5463 24.5789 17.0739 27.9465C8.09262 36.6569 1.65015 52.9921 7.53738 69.0526C7.53897 66.78 9.37582 65.8333 11.5992 64.942C15.8266 63.2474 21.794 62.7081 26.0807 62.3729C25.0378 59.2611 23.4816 56.3239 22.372 53.124C21.2679 49.9398 20.3898 46.6034 19.1932 43.3613C17.9803 41.9115 16.7984 40.4313 17.0739 37.5379C20.5938 33.701 28.509 34.1266 35.0874 33.2561C35.2517 31.3837 35.4848 30.2282 35.9704 28.9742C36.8854 26.6107 38.3584 24.5359 40.0323 23.3221C41.8015 22.0392 43.99 20.9045 46.0368 20.0678C49.3013 18.7334 53.3577 18.555 56.8096 16.9849C55.2219 16.7689 54.0793 16.1593 52.7477 15.9567V15.9572ZM50.6285 27.0906C47.1201 28.5268 43.8935 30.7791 42.6813 34.1129C42.353 35.0157 42.2034 36.0374 42.3281 37.1959C42.6628 37.4509 43.0082 38.5803 43.3877 38.2236C42.593 37.3466 43.4616 36.0115 43.5643 34.9693C45.3888 33.3703 46.9781 31.5431 49.039 30.1736C51.05 29.1024 53.2839 27.877 55.3967 26.9194C58.861 25.3491 63.7227 23.0146 65.4631 20.7535C61.3553 23.5298 55.5186 25.0884 50.6285 27.0906ZM88.2448 49.1852C87.2451 43.6057 85.0127 38.6725 82.417 34.798C82.2707 34.5797 82.3807 34.159 82.2404 33.9417C82 33.5698 81.6116 33.2545 81.3573 32.914C79.8158 30.8505 77.2586 27.8008 75.5294 26.7481C75.5194 26.6436 75.5031 26.5453 75.3528 26.5768C69.4522 31.2449 57.4647 30.0097 49.2156 32.4002C49.0828 33.1278 47.8678 32.8058 47.6262 33.4278C53.3644 34.2183 63.7647 35.557 59.8118 42.1629C63.868 43.4043 66.6447 46.1079 65.8163 51.2405C65.5035 53.1781 63.9775 55.6835 62.4608 57.4064C60.669 59.442 57.7438 62.1307 55.7499 63.401C55.3909 63.6299 54.9909 63.6616 54.8669 64.0862C55.8873 64.7522 57.8061 64.5471 58.399 65.6276C58.553 65.3774 58.5392 64.9645 59.1054 65.1138C60.0795 65.827 61.2972 65.7083 62.4608 66.1415C63.2003 66.4167 63.7147 67.0756 64.5801 67.1691C65.307 67.2477 66.5172 66.9922 67.2291 66.8266C68.9098 66.4357 70.4468 65.654 72.174 65.4564C74.6307 65.1751 77.723 65.6871 80.6509 65.7989C83.4896 65.9073 84.898 66.0594 87.1852 66.8266C89.0855 61.8442 89.1879 54.4451 88.2448 49.1852ZM19.0166 37.1959C18.7767 37.8767 18.095 38.1292 17.9569 38.9087C18.4993 40.3239 19.5473 41.2486 20.4294 42.3342C21.9812 46.256 23.4537 50.2483 24.8445 54.3234C26.587 59.4297 28.9937 63.6456 29.0829 69.9095C29.7552 71.1177 30.628 71.6415 32.0852 72.1361C36.251 73.55 44.0519 73.2972 47.6262 71.6223C48.3008 70.3925 48.7543 68.9483 49.039 67.3404C51.5309 66.9024 52.3777 64.8691 53.4541 63.0585C56.3311 61.3248 59.4676 58.8828 61.4012 56.3788C62.2634 55.2622 62.8986 54.5461 63.5205 53.2958C65.1969 49.9251 64.3205 46.3436 61.4012 44.0469C59.8072 43.6206 58.5551 43.7016 57.6926 44.732C57.2182 46.2702 57.2032 48.2538 56.1031 49.1852C56.3453 46.8438 57.3141 44.8413 57.1628 43.0193C57.0375 42.3414 55.7861 42.7557 55.7499 41.9916C56.6118 41.35 58.3389 41.1207 58.9288 40.2789C58.9537 40.2434 59.2785 39.3651 59.282 39.2512C59.3429 37.2538 54.8256 35.9845 52.5711 35.4831C50.3733 34.9945 47.6343 34.872 45.3304 34.9693C44.781 35.4641 44.1085 35.8396 44.0942 36.8533C46.4529 37.4893 51.7292 37.483 54.6903 37.881C52.1725 36.8403 48.7072 36.7184 45.507 36.3395C48.1082 35.9338 51.1837 36.486 53.4541 37.0246C54.4549 37.262 55.7187 37.3658 56.1031 38.2236C55.3623 39.4477 53.6727 39.932 52.0413 40.2789C47.2781 41.2916 39.9938 41.0022 33.6746 40.6214C30.4323 40.426 27.348 40.5632 24.8445 39.9363C23.4219 39.5801 21.1948 38.8143 22.1954 37.3672C23.0521 37.3355 22.5264 38.6449 23.6082 38.3948C26.4835 36.9818 31.1282 37.2483 35.4406 36.8533C35.4646 36.5709 35.2474 35.2773 35.0874 34.6268C29.2472 35.0139 23.4299 35.4232 19.0166 37.1959ZM25.3743 64.2574C23.7795 63.8196 20.3301 64.2722 18.1335 64.6C16.7469 64.8069 15.3249 65.2755 14.0717 65.6276C12.948 65.9433 11.1003 66.5136 10.363 66.9978C7.92326 68.5999 9.00619 70.9543 11.246 71.7935C11.921 72.0465 12.1831 72.2152 12.8355 72.4786C13.9708 72.9372 14.853 73.1932 16.3675 73.6776C17.9603 74.1871 19.7558 74.7563 20.9592 75.0478C21.8867 75.2725 22.9788 75.2 23.9614 75.3903C24.904 75.5727 25.779 75.9456 26.6105 76.0754C29.3609 76.505 32.4223 76.6042 35.264 76.7605C35.7576 76.7876 36.1811 77.0692 36.6768 77.1031C39.1035 77.2696 41.4045 76.8892 43.7409 76.7605C44.6656 76.7097 45.6122 76.8386 46.5666 76.7605C49.1284 76.5507 51.4958 75.9943 53.4541 75.7329C55.9447 75.4004 57.6551 74.7837 59.282 73.8489C58.0779 73.8067 56.1293 73.342 55.0435 72.6499C50.2057 74.1871 44.7624 74.5365 39.3259 74.7052C33.0363 74.9007 27.1873 73.9871 21.489 73.1638C18.1003 71.997 13.6288 71.8806 11.246 69.7382C11.1065 68.404 11.4391 67.5276 12.3057 67.1691C12.4593 67.9339 11.5931 68.2764 11.9525 68.7106C13.7564 70.6881 17.5195 71.3344 20.7826 71.9648C22.6616 72.3278 24.4178 72.7753 26.0807 72.4786C25.2196 72.1149 23.5929 72.4936 23.255 71.6223C24.6105 71.5094 26.4319 71.8487 27.4935 71.451C26.142 70.2598 22.6684 71.3888 21.3124 70.5946C22.623 70.0959 24.2534 69.9073 25.9041 69.7382C24.324 68.0234 20.4289 69.8653 18.3102 69.2244C20.2955 68.2382 23.1129 68.0589 25.9041 67.8542C25.918 67.2417 25.109 67.2191 24.8445 67.1691C22.2051 66.6698 18.5505 68.2589 16.1909 67.8542C18.8834 66.4691 22.6558 66.1312 26.7871 66.1415C26.8383 65.1326 26.2149 64.4869 25.3743 64.2574ZM53.6307 65.4564C53.4829 66.2214 52.5783 66.9903 52.7477 67.5117C54.0613 67.8362 56.4246 67.1429 56.2797 68.8819C54.2804 68.9368 52.7072 68.5785 50.6285 68.7106C50.6025 71.1405 49.3126 72.3444 47.8028 73.335C49.1268 73.2293 50.898 72.8615 51.6881 72.6499C52.7152 72.3749 54.1416 72.603 54.6903 71.7935C54.2407 71.0879 52.8491 71.2956 52.0413 70.9372C52.581 69.4875 54.5686 69.7357 55.9265 69.3957C57.8395 68.9166 59.635 68.0162 61.048 67.3404C58.9005 66.3967 56.361 65.8349 53.6307 65.4564ZM74.823 66.484C72.2865 66.4145 69.7904 67.6987 67.0525 68.0255C65.9332 68.1591 64.816 67.9166 63.6971 68.0255C61.5056 68.2386 59.6797 69.5743 57.6926 69.7382C57.3805 70.025 57.8494 70.3122 57.6926 70.9372C57.4464 71.4976 56.3834 71.266 56.1031 71.7935C58.817 73.0478 63.5457 71.8773 66.6993 71.451C66.7269 71.9951 67.4311 71.8831 67.7589 72.1361C69.3775 72.224 70.9192 71.482 72.174 71.2797C72.5023 71.2268 73.4503 70.905 73.5868 71.451C73.32 71.9383 72.6453 71.9962 72.174 72.1361C71.2874 72.3993 70.3345 72.6071 69.525 72.8212C69.2683 72.889 69.0827 73.0865 68.8185 73.1638C68.1833 73.3498 67.4481 73.2814 66.8759 73.5063C66.2612 73.748 65.704 74.2892 65.1099 74.534C64.5146 74.7792 63.8362 74.9505 63.1673 75.2191C61.8129 75.7629 60.5507 76.1869 59.282 76.5893C57.6617 77.1031 56.1549 77.3386 54.3371 77.7882C52.3339 78.2837 50.1617 79.0859 47.9794 79.3297C46.1966 79.5289 43.0621 78.9707 42.1515 80.186C42.6744 81.3709 44.1067 81.6777 45.3304 81.8988C47.3671 82.2667 49.824 82.3383 52.2179 82.5839C53.6115 83.4728 54.9342 84.9432 56.6329 85.3243C57.6278 85.5475 58.9343 85.5704 59.9884 85.6669C63.1376 85.9551 65.4822 85.7599 67.7589 86.0094C68.4203 86.082 69.3402 85.876 69.7016 86.5232C67.737 87.2977 63.5293 85.74 63.3439 88.5785C64.1131 89.368 65.1828 89.2604 66.5227 89.4349C67.8854 89.6124 69.1117 90.1253 70.0548 89.9487C70.9766 89.7759 71.4676 89.0033 71.9974 88.5785C73.0208 87.7578 73.9081 87.2921 74.823 86.5232C76.2643 85.3122 77.6769 83.8604 78.7083 82.5839C78.9409 82.2958 79.1788 82.0106 79.4147 81.7275C82.5065 78.0158 85.6391 72.9945 86.832 68.0255C83.7733 66.5953 78.4505 67.3627 74.823 66.484V66.484ZM22.9018 89.4349C25.1558 90.9584 27.1558 91.923 29.6127 93.0317C32.2148 94.2056 35.1051 95.1062 38.0897 95.7721C39.2335 96.0273 39.7079 96.1309 40.7387 96.2859C49.9674 97.674 60.2957 96.054 67.7589 91.319C65.4797 90.9067 63.2967 91.0828 61.931 89.9487C60.8801 89.0761 61.0348 87.6543 59.9884 86.6945C58.9441 86.9473 57.8958 86.9483 56.9862 86.8658C55.0594 86.6909 54.2446 85.9512 53.1009 85.153C52.0464 84.4172 51.3004 83.713 50.2752 83.6116C47.8893 83.3755 45.4851 83.3086 43.7409 82.7552C41.8877 82.167 41.2168 81.4593 40.2089 80.3573C35.303 80.5788 30.978 79.9637 26.9637 79.3297C25.4989 79.0983 23.9757 79.1079 22.7252 78.6446C21.4969 78.1897 20.4534 77.0709 19.1932 76.7605C16.8332 76.1792 14.5068 76.7729 12.3057 76.7605C12.176 75.8586 11.3271 75.6541 11.246 74.7052C11.8853 74.5259 13.295 75.0939 13.3653 74.3627C11.3202 73.6056 9.66032 72.4751 8.24379 71.1084C11.1489 78.3842 16.6722 85.2233 22.9018 89.4349ZM45.507 77.9595C38.158 78.3543 29.6177 77.6813 24.138 76.5893C23.2148 76.4053 22.1368 76.0013 21.3124 76.418C23.5885 77.3821 26.3528 78.0763 29.0829 78.4733C33.9386 79.1795 39.0279 79.2033 43.7409 78.8158C46.843 78.5608 50.4008 78.7867 51.6881 77.2744C50.1711 77.634 47.5909 77.8464 45.507 77.9595Z" fill="white"/>
<path fill-rule="evenodd" clip-rule="evenodd" d="M35.0874 34.6268C35.2474 35.2773 35.4647 36.5709 35.4406 36.8533C31.1282 37.2483 26.4835 36.9818 23.6083 38.3948C22.5264 38.6449 23.0521 37.3355 22.1954 37.3672C21.1948 38.8143 23.4219 39.58 24.8445 39.9363C27.348 40.5632 30.4324 40.426 33.6746 40.6214C39.9938 41.0021 47.2782 41.2916 52.0413 40.2788C53.6728 39.932 55.3623 39.4476 56.1032 38.2235C55.7187 37.3658 54.4549 37.262 53.4541 37.0246C51.1837 36.4859 48.1082 35.9338 45.507 36.3395C48.7072 36.7184 52.1725 36.8403 54.6903 37.881C51.7292 37.4829 46.4529 37.4893 44.0942 36.8533C44.1085 35.8396 44.781 35.4641 45.3304 34.9693C47.6344 34.872 50.3733 34.9945 52.5711 35.4831C54.8256 35.9845 59.3429 37.2538 59.282 39.2512C59.2785 39.3651 58.9537 40.2434 58.9288 40.2788C58.339 41.1207 56.6118 41.35 55.75 41.9916C55.7862 42.7557 57.0376 42.3413 57.1628 43.0192C57.3141 44.8413 56.3453 46.8438 56.1032 49.1852C57.2032 48.2538 57.2182 46.2702 57.6926 44.732C58.5551 43.7016 59.8072 43.6206 61.4013 44.0469C64.3205 46.3435 65.197 49.9251 63.5205 53.2958C62.8987 54.5461 62.2634 55.2622 61.4013 56.3787C59.4676 58.8828 56.3312 61.3248 53.4541 63.0585C52.3777 64.869 51.5309 66.9024 49.0391 67.3404C48.7544 68.9483 48.3009 70.3925 47.6262 71.6222C44.052 73.2971 36.2511 73.5499 32.0852 72.1361C30.628 71.6414 29.7553 71.1177 29.0829 69.9095C28.9938 63.6456 26.587 59.4297 24.8445 54.3234C23.4537 50.2483 21.9812 46.256 20.4294 42.3341C19.5473 41.2486 18.4993 40.3239 17.957 38.9086C18.0951 38.1292 18.7768 37.8767 19.0166 37.1959C23.4299 35.4232 29.2472 35.0138 35.0874 34.6268V34.6268ZM19.5464 38.3948C19.9372 39.2721 20.5483 40.2866 21.3124 40.6214C21.5692 40.7339 22.2943 40.8751 22.7252 40.9639C23.3866 41.1003 24.4311 41.2748 25.1977 41.3065C25.796 41.3312 26.8429 41.562 26.9637 40.9639C24.3235 40.9126 21.2344 39.9293 20.2528 37.7097H19.723C19.7636 38.0334 19.5252 38.0865 19.5464 38.3948ZM27.8467 43.3618C30.1339 43.7032 32.3693 44.0526 34.381 44.0469C40.2751 44.0305 46.44 44.1183 50.2753 42.848C41.2145 43.2856 28.4595 43.9864 21.1358 40.7927C21.595 43.0723 24.9028 42.9216 27.8467 43.3618V43.3618ZM23.9615 44.9033C26.5923 45.4918 29.9494 45.3762 32.9682 45.5884C32.6018 45.0184 31.566 44.8533 30.849 44.732C28.9821 44.4165 27.0612 44.4458 25.5509 44.2182C25.0276 44.0976 24.782 43.7079 23.9615 43.8756V44.9033ZM24.1381 46.7873C26.5453 47.7345 28.7855 47.3006 31.732 47.3011C31.2011 46.1861 29.6965 46.6976 28.7297 46.616C27.055 46.4747 25.5168 45.9996 24.1381 45.7597V46.7873ZM52.9243 60.8319C53.7914 60.1072 55.2228 59.3433 55.9266 58.7766C56.1256 58.6163 56.6831 58.5488 56.8096 58.434C56.9837 58.2758 56.9874 57.8926 57.1628 57.7489C59.5309 55.8091 62.3217 53.2761 62.6375 50.0415C62.7987 48.3903 62.3371 47.8819 61.5779 47.1299C57.6287 46.4968 58.0908 50.1423 55.3968 50.7266C53.9527 55.7776 51.4702 59.8212 49.9221 64.7712C51.1018 63.884 51.5804 61.9555 52.9243 60.8319ZM24.6679 48.6713C26.4169 49.7154 30.0304 48.9514 32.615 49.1852C32.2321 48.354 31.0056 48.5737 30.1426 48.5001C28.2843 48.3415 26.5097 48.0981 24.6679 47.9862V48.6713ZM25.3743 51.2405C27.2881 51.2093 29.6232 51.2821 31.3788 51.2405C31.9331 51.2273 32.9221 51.5371 33.1448 50.8979C30.8108 50.263 27.8956 50.5992 25.0211 49.8703C25.0652 50.3978 25.2012 50.838 25.3743 51.2405ZM26.0807 53.2958C27.8617 53.2569 30.0926 53.3477 31.732 53.2958C32.2259 53.28 33.187 53.5859 33.3214 52.9532C30.8571 52.3416 28.575 52.456 25.7275 52.0968C25.5262 52.8059 26.1001 52.7631 26.0807 53.2958ZM26.7871 55.1798C27.5857 55.3965 28.77 55.3569 29.966 55.3511C31.081 55.3456 32.5783 55.6332 32.9682 54.8373C30.6529 54.4803 28.794 54.5845 26.4339 54.1522C26.3491 54.6917 26.9761 54.5392 26.7871 55.1798ZM27.6701 57.4064C28.5452 57.4023 29.6329 57.4117 30.6724 57.4064C31.6128 57.4016 32.8734 57.696 33.3214 57.0638C33.0475 56.5464 32.1108 56.5983 31.5554 56.55C29.9868 56.4133 28.6642 56.396 27.3169 56.0362C27.3452 56.5808 27.7178 56.7898 27.6701 57.4064ZM28.5531 59.4617C30.2838 59.8268 32.808 59.6336 34.381 59.2904C33.8283 58.346 32.2745 58.8699 31.0256 58.7766C30.0747 58.7055 29.1617 58.3388 28.3765 58.434C28.3665 58.3296 28.3502 58.2312 28.1999 58.2628C28.23 58.7475 28.5249 58.9753 28.5531 59.4617ZM29.966 62.0308C30.9087 62.1476 31.8148 61.9385 32.7916 61.8595C33.996 61.7623 35.4714 61.9332 36.1471 61.1744C34.1142 60.8053 31.3341 61.1607 29.4361 60.6606C29.3214 61.3988 29.7417 61.6198 29.966 62.0308ZM30.3192 63.9148C31.3376 64.2139 32.4811 64.0236 33.6746 63.9148C34.7245 63.8191 36.1667 63.9979 36.6769 63.2297C34.8126 62.8112 32.05 63.2637 30.1426 62.8872C30.0154 63.4096 30.4481 63.3907 30.3192 63.9148ZM30.6724 65.6276C32.0061 66.3917 35.5104 66.3182 36.5003 65.2851C34.541 65.0473 32.1632 64.9809 30.6724 64.7712V65.6276ZM31.0256 67.3404C31.5706 67.5759 32.4347 67.9347 33.3214 68.0255C34.7856 68.1753 36.794 68.0816 37.2067 67.5116C35.1869 66.7325 33.2435 67.1374 31.0256 66.6553V67.3404ZM31.0256 69.9095C33.0003 70.8726 35.9595 70.7412 38.6195 70.5946C40.1531 70.51 41.9702 70.8325 42.858 69.9095C38.6338 69.7906 34.442 69.8483 30.6724 68.5393C30.4799 69.2963 30.9726 69.3905 31.0256 69.9095Z" fill="black"/>
<path fill-rule="evenodd" clip-rule="evenodd" d="M87.1852 66.8265C84.8981 66.0594 83.4897 65.9073 80.6509 65.7989C77.723 65.687 74.6307 65.1751 72.174 65.4563C70.4468 65.654 68.9098 66.4357 67.2291 66.8265C66.5172 66.9922 65.307 67.2477 64.5801 67.1691C63.7147 67.0756 63.2003 66.4167 62.4608 66.1414C61.2972 65.7083 60.0795 65.827 59.1054 65.1138C58.5392 64.9644 58.553 65.3774 58.399 65.6276C57.8061 64.547 55.8873 64.7522 54.8669 64.0861C54.9909 63.6615 55.3909 63.6299 55.7499 63.401C57.7438 62.1307 60.669 59.442 62.4608 57.4064C63.9775 55.6835 65.5035 53.1781 65.8163 51.2405C66.6447 46.1079 63.868 43.4043 59.8118 42.1629C63.7647 35.5569 53.3644 34.2183 47.6262 33.4278C47.8678 32.8058 49.0828 33.1277 49.2156 32.4002C57.4649 30.0097 69.4526 31.2449 75.3529 26.5768C75.5031 26.5453 75.5194 26.6436 75.5295 26.7481C77.2586 27.8007 79.8158 30.8505 81.3573 32.914C81.6117 33.2545 82 33.5698 82.2404 33.9416C82.3808 34.159 82.2707 34.5797 82.417 34.798C85.0127 38.6724 87.2451 43.6057 88.2449 49.1852C89.1879 54.445 89.0855 61.8441 87.1852 66.8265ZM78.1785 30.6874C77.5876 29.9876 76.3667 28.2664 75.5295 28.4608C74.5103 28.6974 73.6467 29.2939 72.7038 29.6598C69.8699 30.7594 66.5192 31.4679 62.9907 31.8863C59.4107 32.3109 55.8467 32.0235 53.1009 33.2565C62.1613 33.6077 70.4797 33.3275 79.9445 33.4278C79.6531 32.443 78.9838 31.6397 78.1785 30.6874ZM61.4012 36.5108C61.9404 38.4781 62.1451 39.2565 61.4012 41.3065C62.4942 42.6959 64.4858 42.5054 66.5227 42.5054C72.6733 42.5054 80.068 42.6678 85.066 42.3341C84.0149 39.3002 82.4593 36.755 80.8275 34.2842H58.9288C59.2802 35.4848 60.7566 35.5945 61.4012 36.5108ZM65.4631 43.7044C65.286 43.7038 65.2529 43.8431 65.1099 43.8756C65.0022 43.8854 64.9008 43.9011 64.9333 44.0469C66.0771 45.5637 67.064 47.233 67.2291 49.699C72.8197 50.0827 80.5506 49.7675 87.0086 49.8703C86.908 47.456 86.0744 45.7523 85.5958 43.7044C79.307 44.1051 69.396 43.7215 65.4631 43.7044ZM67.2291 51.4117C66.9808 51.4565 67.0278 51.7874 66.8759 51.9256C66.8962 53.3203 65.7181 54.5606 65.2865 56.0362C72.7999 56.0614 80.7862 55.9377 87.5384 56.2075C87.7105 55.0467 87.4258 53.0637 87.5384 51.4117H67.2291ZM63.5205 57.9202C62.8582 58.7435 62.1615 59.4619 61.4012 60.1468C60.8078 60.6815 59.8206 61.1522 59.6352 62.0308C69.8713 61.4497 79.058 62.3061 87.3618 61.8596C87.2794 60.4094 87.6757 59.4235 87.5384 57.9202C79.3035 58.3844 72.1811 57.7421 63.5205 57.9202ZM78.8849 64.0861C78.267 64.0473 77.7214 63.7292 77.1189 63.7436C76.3065 63.7628 75.4496 63.9531 74.823 64.2574C78.2721 64.966 82.9729 64.4604 85.949 65.6276C86.2037 65.2465 86.3926 64.8017 86.3022 64.0861C83.4289 63.9405 80.9282 64.2146 78.8849 64.0861ZM60.165 63.9149C59.9669 63.9512 59.89 64.1048 59.8118 64.2574C61.5978 64.366 62.772 65.9051 64.5801 66.1414C66.6015 66.4057 67.6826 65.5976 69.1718 65.1138C70.3386 64.7346 71.8185 64.6464 72.5272 63.9149C67.8313 64.3037 63.4851 63.9594 60.165 63.9149Z" fill="black"/>
<path fill-rule="evenodd" clip-rule="evenodd" d="M26.7871 66.1414C22.6558 66.1312 18.8834 66.4691 16.1909 67.8542C18.5505 68.2589 22.2051 66.6698 24.8445 67.1691C25.109 67.2191 25.918 67.2417 25.9041 67.8542C23.1129 68.0589 20.2955 68.2382 18.3102 69.2244C20.4289 69.8653 24.324 68.0234 25.9041 69.7382C24.2534 69.9073 22.623 70.0959 21.3124 70.5946C22.6684 71.3888 26.142 70.2598 27.4935 71.451C26.432 71.8487 24.6105 71.5094 23.2551 71.6223C23.5929 72.4935 25.2196 72.1149 26.0807 72.4786C24.4178 72.7753 22.6617 72.3278 20.7826 71.9648C17.5195 71.3344 13.7565 70.6881 11.9525 68.7106C11.5931 68.2764 12.4593 67.9338 12.3057 67.1691C11.4391 67.5276 11.1065 68.404 11.2461 69.7382C13.6288 71.8806 18.1004 71.997 21.489 73.1637C27.1873 73.9871 33.0364 74.9007 39.3259 74.7052C44.7624 74.5365 50.2057 74.1871 55.0435 72.6499C56.1293 73.342 58.0779 73.8067 59.282 73.8488C57.6551 74.7837 55.9448 75.4004 53.4541 75.7329C51.4958 75.9942 49.1284 76.5507 46.5666 76.7605C45.6123 76.8386 44.6657 76.7097 43.741 76.7605C41.4045 76.8892 39.1036 77.2696 36.6769 77.1031C36.1811 77.0692 35.7576 76.7876 35.264 76.7605C32.4223 76.6042 29.3609 76.505 26.6105 76.0754C25.7791 75.9456 24.904 75.5727 23.9615 75.3903C22.9788 75.2 21.8867 75.2725 20.9592 75.0478C19.7558 74.7563 17.9603 74.1871 16.3675 73.6776C14.853 73.1932 13.9709 72.9371 12.8355 72.4786C12.1831 72.2152 11.921 72.0465 11.2461 71.7935C9.00621 70.9543 7.92328 68.5999 10.3631 66.9978C11.1004 66.5136 12.948 65.9433 14.0717 65.6276C15.3249 65.2755 16.7469 64.8069 18.1336 64.6C20.3302 64.2721 23.7796 63.8196 25.3743 64.2574C26.2149 64.4869 26.8383 65.1326 26.7871 66.1414Z" fill="black"/>
</g>
<g filter="url(#filter0_d_13_97)">
<path d="M116.647 30.008C118.735 30.008 120.559 30.62 122.119 31.844C123.679 33.068 124.459 34.652 124.459 36.596C124.459 37.628 124.171 38.48 123.595 39.152C123.019 39.824 122.311 40.16 121.471 40.16C120.631 40.16 119.959 40.052 119.455 39.836C119.527 39.452 119.563 39.044 119.563 38.612C119.539 37.1 119.167 35.876 118.447 34.94C117.727 33.98 116.671 33.5 115.279 33.5C113.911 33.5 112.639 33.944 111.463 34.832C110.767 35.84 110.227 37.16 109.843 38.792C109.459 40.424 109.267 42.032 109.267 43.616C109.267 46.256 109.771 48.476 110.779 50.276C111.811 52.052 113.407 52.94 115.567 52.94C117.559 52.94 118.903 52.184 119.599 50.672C120.247 49.352 120.571 47.6 120.571 45.416C121.795 45.416 122.815 45.644 123.631 46.1C124.447 46.532 124.855 47.252 124.855 48.26C124.855 50.612 123.823 52.568 121.759 54.128C119.695 55.664 117.367 56.432 114.775 56.432C111.391 56.432 108.823 55.316 107.071 53.084C105.319 50.828 104.443 47.78 104.443 43.94C104.443 40.1 105.535 36.824 107.719 34.112C109.927 31.376 112.903 30.008 116.647 30.008ZM134.01 56.432C131.37 56.432 129.426 55.664 128.178 54.128C126.93 52.568 126.306 50.408 126.306 47.648C126.306 44.864 127.134 42.452 128.79 40.412C130.446 38.372 132.57 37.352 135.162 37.352C140.49 37.352 143.154 40.352 143.154 46.352C143.154 49.16 142.29 51.548 140.562 53.516C138.834 55.46 136.65 56.432 134.01 56.432ZM131.418 41.312C130.986 42.704 130.77 44.096 130.77 45.488C130.77 46.88 130.818 47.96 130.914 48.728C131.01 49.496 131.19 50.264 131.454 51.032C132.006 52.592 133.086 53.372 134.694 53.372C136.326 53.372 137.394 52.94 137.898 52.076C138.426 51.212 138.69 49.88 138.69 48.08C138.69 42.968 137.478 40.412 135.054 40.412C133.662 40.412 132.45 40.712 131.418 41.312ZM147.857 50.132C147.857 49.7 147.749 46.892 147.533 41.708C146.357 41.78 145.421 41.984 144.725 42.32C144.437 41.792 144.293 41.24 144.293 40.664C144.293 40.088 144.497 39.62 144.905 39.26C145.313 38.876 145.793 38.684 146.345 38.684C146.897 38.684 147.293 38.696 147.533 38.72C147.653 36.08 148.577 33.86 150.305 32.06C152.033 30.26 154.205 29.36 156.821 29.36C158.765 29.36 160.265 30.104 161.321 31.592C163.049 29.864 165.125 29 167.549 29C169.013 29 170.249 29.312 171.257 29.936C172.265 30.56 172.769 31.484 172.769 32.708C172.769 33.572 172.445 34.304 171.797 34.904C171.149 35.504 170.381 35.804 169.493 35.804C169.301 35.804 169.061 35.78 168.773 35.732C168.845 35.42 168.881 35.144 168.881 34.904C168.881 34.064 168.701 33.392 168.341 32.888C167.981 32.36 167.345 32.096 166.433 32.096C165.521 32.096 164.681 32.36 163.913 32.888C163.433 33.536 163.049 34.436 162.761 35.588C162.473 36.74 162.329 37.868 162.329 38.972C164.465 38.972 166.625 38.72 168.809 38.216C169.097 38.696 169.241 39.272 169.241 39.944C169.241 40.592 168.965 41.132 168.413 41.564C167.861 41.996 167.165 42.212 166.325 42.212C166.301 42.212 164.945 42.044 162.257 41.708L162.617 60.428C162.617 61.988 161.693 62.768 159.845 62.768C159.221 62.768 158.405 62.624 157.397 62.336C158.189 59.192 158.585 55.124 158.585 50.132C158.585 49.628 158.477 46.784 158.261 41.6C155.285 41.6 153.041 41.624 151.529 41.672L151.889 60.428C151.889 61.988 150.965 62.768 149.117 62.768C148.493 62.768 147.677 62.624 146.669 62.336C147.461 59.192 147.857 55.124 147.857 50.132ZM158.261 38.9C158.285 37.676 158.525 36.488 158.981 35.336C158.933 34.496 158.645 33.812 158.117 33.284C157.589 32.732 156.821 32.456 155.813 32.456C154.829 32.456 153.953 32.72 153.185 33.248C152.129 34.568 151.601 36.428 151.601 38.828C153.017 38.876 155.237 38.9 158.261 38.9ZM173.905 47.828C173.905 49.556 174.181 50.924 174.733 51.932C175.285 52.916 176.209 53.408 177.505 53.408C178.801 53.408 179.809 52.976 180.529 52.112C181.273 51.224 181.645 50.156 181.645 48.908C182.461 48.908 183.169 49.112 183.769 49.52C184.369 49.928 184.669 50.492 184.669 51.212C184.669 52.7 183.877 53.948 182.293 54.956C180.709 55.94 179.041 56.432 177.289 56.432C174.553 56.432 172.573 55.7 171.349 54.236C170.125 52.748 169.513 50.552 169.513 47.648C169.513 44.744 170.329 42.308 171.961 40.34C173.617 38.348 175.813 37.352 178.549 37.352C180.421 37.352 181.921 37.784 183.049 38.648C184.201 39.488 184.777 40.808 184.777 42.608C184.777 44.384 183.961 45.728 182.329 46.64C180.721 47.528 178.753 47.972 176.425 47.972C175.609 47.972 174.769 47.924 173.905 47.828ZM173.941 44.984C174.661 45.128 175.417 45.2 176.209 45.2C177.937 45.2 179.389 44.876 180.565 44.228C180.709 43.652 180.781 43.196 180.781 42.86C180.781 42.02 180.481 41.384 179.881 40.952C179.281 40.52 178.453 40.304 177.397 40.304C176.365 40.304 175.429 40.64 174.589 41.312C174.157 42.56 173.941 43.784 173.941 44.984ZM191.413 47.828C191.413 49.556 191.689 50.924 192.241 51.932C192.793 52.916 193.717 53.408 195.013 53.408C196.309 53.408 197.317 52.976 198.037 52.112C198.781 51.224 199.153 50.156 199.153 48.908C199.969 48.908 200.677 49.112 201.277 49.52C201.877 49.928 202.177 50.492 202.177 51.212C202.177 52.7 201.385 53.948 199.801 54.956C198.217 55.94 196.549 56.432 194.797 56.432C192.061 56.432 190.081 55.7 188.857 54.236C187.633 52.748 187.021 50.552 187.021 47.648C187.021 44.744 187.837 42.308 189.469 40.34C191.125 38.348 193.321 37.352 196.057 37.352C197.929 37.352 199.429 37.784 200.557 38.648C201.709 39.488 202.285 40.808 202.285 42.608C202.285 44.384 201.469 45.728 199.837 46.64C198.229 47.528 196.261 47.972 193.933 47.972C193.117 47.972 192.277 47.924 191.413 47.828ZM191.449 44.984C192.169 45.128 192.925 45.2 193.717 45.2C195.445 45.2 196.897 44.876 198.073 44.228C198.217 43.652 198.289 43.196 198.289 42.86C198.289 42.02 197.989 41.384 197.389 40.952C196.789 40.52 195.961 40.304 194.905 40.304C193.873 40.304 192.937 40.64 192.097 41.312C191.665 42.56 191.449 43.784 191.449 44.984ZM211.657 55.568C210.889 55.856 210.073 56 209.209 56C208.345 56 207.589 55.724 206.941 55.172C206.317 54.62 206.005 53.864 206.005 52.904C206.005 51.944 206.125 50.108 206.365 47.396C206.605 44.66 206.725 42.476 206.725 40.844C206.725 36.644 206.473 33.32 205.969 30.872C206.737 30.584 207.553 30.44 208.417 30.44C209.281 30.44 210.025 30.716 210.649 31.268C211.297 31.82 211.621 32.504 211.621 33.32C211.621 34.112 211.585 34.88 211.513 35.624C211.465 36.368 211.393 37.22 211.297 38.18C211.201 39.14 211.129 39.98 211.081 40.7C212.041 40.796 213.697 40.844 216.049 40.844C218.401 40.844 220.213 40.748 221.485 40.556C221.485 36.74 221.233 33.44 220.729 30.656C221.497 30.368 222.313 30.224 223.177 30.224C224.041 30.224 224.785 30.5 225.409 31.052C226.057 31.604 226.381 32.372 226.381 33.356C226.381 34.316 226.261 36.032 226.021 38.504C225.781 40.976 225.661 42.956 225.661 44.444C225.661 49.148 225.913 52.928 226.417 55.784C225.649 56.072 224.833 56.216 223.969 56.216C223.105 56.216 222.349 55.94 221.701 55.388C221.077 54.836 220.765 54.104 220.765 53.192C220.765 52.28 220.861 50.792 221.053 48.728C221.245 46.664 221.365 45.248 221.413 44.48C219.061 44.312 215.557 44.228 210.901 44.228V45.164C210.901 49.412 211.153 52.88 211.657 55.568ZM246.918 39.044C246.27 41.804 245.946 44.576 245.946 47.36C245.946 50.12 246.258 52.856 246.882 55.568C246.018 55.856 245.13 56 244.218 56C243.306 56 242.67 55.736 242.31 55.208C241.95 54.656 241.77 53.876 241.77 52.868C241.77 51.836 241.926 50.432 242.238 48.656C240.534 52.304 238.89 54.608 237.306 55.568C236.586 56 235.842 56.216 235.074 56.216C233.25 56.216 231.834 55.544 230.826 54.2C229.818 52.832 229.314 51.14 229.314 49.124C229.314 46.052 230.166 43.364 231.87 41.06C233.574 38.732 235.782 37.568 238.494 37.568C241.23 37.568 244.038 38.06 246.918 39.044ZM242.202 41.204C240.93 40.82 239.85 40.628 238.962 40.628C237.162 40.628 235.818 41.024 234.93 41.816C234.114 43.832 233.706 45.884 233.706 47.972C233.706 49.076 233.874 50.192 234.21 51.32C234.57 52.448 235.11 53.012 235.83 53.012C236.67 53.012 237.75 51.776 239.07 49.304C240.39 46.832 241.434 44.132 242.202 41.204ZM250.479 52.328L250.839 44.84C250.839 42.512 250.503 40.304 249.831 38.216C250.503 37.928 251.331 37.784 252.315 37.784C254.235 37.784 255.195 38.852 255.195 40.988C255.195 42.188 255.063 43.88 254.799 46.064C254.535 48.224 254.403 49.796 254.403 50.78C254.403 51.98 254.943 52.58 256.023 52.58C256.671 52.58 257.427 52.04 258.291 50.96C259.179 49.856 259.935 48.632 260.559 47.288C261.207 45.92 261.591 44.804 261.711 43.94C261.567 41.3 261.363 39.392 261.099 38.216C261.867 37.928 262.647 37.784 263.439 37.784C264.255 37.784 264.927 38.036 265.455 38.54C266.007 39.044 266.283 39.668 266.283 40.412C266.283 41.156 266.175 42.392 265.959 44.12C265.743 45.848 265.635 47.66 265.635 49.556C265.635 51.428 265.851 53.432 266.283 55.568C265.347 55.856 264.507 56 263.763 56C262.275 56 261.531 55.016 261.531 53.048C261.531 52.184 261.627 50.984 261.819 49.448C260.859 51.488 259.683 53.132 258.291 54.38C256.923 55.604 255.531 56.216 254.115 56.216C251.691 56.216 250.479 54.92 250.479 52.328ZM273.15 49.448C273.078 49.784 273.042 50.06 273.042 50.276C273.042 51.26 273.33 52.016 273.906 52.544C274.506 53.072 275.298 53.336 276.282 53.336C277.29 53.336 278.118 53.156 278.766 52.796C279.438 52.412 279.774 51.848 279.774 51.104C279.774 50.36 279.414 49.772 278.694 49.34C277.998 48.884 277.146 48.524 276.138 48.26C275.154 47.996 274.158 47.708 273.15 47.396C272.142 47.06 271.278 46.544 270.558 45.848C269.862 45.152 269.514 44.276 269.514 43.22C269.514 41.564 270.39 40.172 272.142 39.044C273.894 37.916 275.73 37.352 277.65 37.352C279.762 37.352 281.37 37.784 282.474 38.648C283.122 39.152 283.446 39.824 283.446 40.664C283.446 41.48 283.122 42.152 282.474 42.68C281.85 43.184 281.082 43.436 280.17 43.436C279.978 43.436 279.738 43.412 279.45 43.364C279.522 43.052 279.558 42.776 279.558 42.536C279.558 41.84 279.294 41.312 278.766 40.952C278.238 40.592 277.518 40.412 276.606 40.412C275.718 40.412 274.902 40.592 274.158 40.952C273.87 41.336 273.726 41.828 273.726 42.428C273.726 43.028 274.074 43.52 274.77 43.904C275.466 44.264 276.306 44.588 277.29 44.876C278.298 45.14 279.306 45.452 280.314 45.812C281.322 46.148 282.174 46.688 282.87 47.432C283.566 48.152 283.914 49.064 283.914 50.168C283.914 51.968 283.014 53.468 281.214 54.668C279.438 55.844 277.602 56.432 275.706 56.432C273.81 56.432 272.238 56.096 270.99 55.424C269.766 54.728 269.154 53.684 269.154 52.292C269.154 51.428 269.466 50.732 270.09 50.204C270.738 49.652 271.518 49.376 272.43 49.376C272.622 49.376 272.862 49.4 273.15 49.448Z" fill="white"/>
</g>
<g filter="url(#filter1_d_13_97)">
<path d="M115.754 78.19C116.126 76.402 116.312 74.548 116.312 72.628C116.312 70.708 116.162 68.764 115.862 66.796C117.494 66.34 118.94 66.112 120.2 66.112C122.072 66.112 123.494 66.604 124.466 67.588C125.45 68.56 125.942 70.042 125.942 72.034C125.942 74.026 125.384 75.706 124.268 77.074C123.164 78.43 121.628 79.108 119.66 79.108C118.316 79.108 117.014 78.802 115.754 78.19ZM118.544 67.93C118.436 69.394 118.382 70.816 118.382 72.196C118.382 73.564 118.448 75.22 118.58 77.164C119.072 77.332 119.624 77.416 120.236 77.416C120.848 77.416 121.376 77.278 121.82 77.002C122.276 76.714 122.624 76.324 122.864 75.832C123.332 74.896 123.566 73.75 123.566 72.394C123.566 71.086 123.314 70.006 122.81 69.154C122.258 68.194 121.4 67.714 120.236 67.714C119.6 67.714 119.036 67.786 118.544 67.93ZM135.648 70.522C135.324 71.902 135.162 73.288 135.162 74.68C135.162 76.06 135.318 77.428 135.63 78.784C135.198 78.928 134.754 79 134.298 79C133.842 79 133.524 78.868 133.344 78.604C133.164 78.328 133.074 77.938 133.074 77.434C133.074 76.918 133.152 76.216 133.308 75.328C132.456 77.152 131.634 78.304 130.842 78.784C130.482 79 130.11 79.108 129.726 79.108C128.814 79.108 128.106 78.772 127.602 78.1C127.098 77.416 126.846 76.57 126.846 75.562C126.846 74.026 127.272 72.682 128.124 71.53C128.976 70.366 130.08 69.784 131.436 69.784C132.804 69.784 134.208 70.03 135.648 70.522ZM133.29 71.602C132.654 71.41 132.114 71.314 131.67 71.314C130.77 71.314 130.098 71.512 129.654 71.908C129.246 72.916 129.042 73.942 129.042 74.986C129.042 75.538 129.126 76.096 129.294 76.66C129.474 77.224 129.744 77.506 130.104 77.506C130.524 77.506 131.064 76.888 131.724 75.652C132.384 74.416 132.906 73.066 133.29 71.602ZM137.303 70.054C137.687 69.946 138.071 69.892 138.455 69.892C138.851 69.892 139.187 70.012 139.463 70.252C139.739 70.492 139.877 70.804 139.877 71.188C139.877 71.56 139.811 72.214 139.679 73.15C139.559 74.074 139.499 74.794 139.499 75.31C139.499 76.654 139.625 77.812 139.877 78.784C139.505 78.928 139.103 79 138.671 79C138.239 79 137.897 78.904 137.645 78.712C137.393 78.508 137.267 78.22 137.267 77.848C137.267 77.464 137.339 76.84 137.483 75.976C137.627 75.112 137.699 74.398 137.699 73.834C137.699 72.334 137.567 71.074 137.303 70.054ZM137.537 65.986C137.957 65.794 138.371 65.698 138.779 65.698C139.187 65.698 139.487 65.806 139.679 66.022C139.883 66.226 139.985 66.532 139.985 66.94C139.985 67.348 139.847 67.708 139.571 68.02C139.307 68.332 138.959 68.488 138.527 68.488C137.639 68.488 137.195 68.026 137.195 67.102C137.195 66.694 137.309 66.322 137.537 65.986ZM142.017 65.716C142.401 65.572 142.797 65.5 143.205 65.5C143.613 65.5 143.949 65.638 144.213 65.914C144.489 66.178 144.627 66.544 144.627 67.012C144.627 67.468 144.561 68.392 144.429 69.784C144.309 71.164 144.249 72.25 144.249 73.042C144.249 74.998 144.387 76.912 144.663 78.784C144.279 78.928 143.871 79 143.439 79C142.515 79 142.053 78.55 142.053 77.65C142.053 77.218 142.119 76.372 142.251 75.112C142.383 73.84 142.449 72.82 142.449 72.052C142.449 69.496 142.305 67.384 142.017 65.716ZM146.851 76.012L147.031 73.42C147.031 72.256 146.863 71.152 146.527 70.108C146.863 69.964 147.277 69.892 147.769 69.892C148.729 69.892 149.209 70.426 149.209 71.494C149.209 71.974 149.143 72.652 149.011 73.528C148.879 74.404 148.813 75.01 148.813 75.346C148.813 75.67 148.819 75.91 148.831 76.066C148.843 76.21 148.873 76.384 148.921 76.588C148.993 76.996 149.227 77.2 149.623 77.2C150.031 77.2 150.463 76.882 150.919 76.246C151.387 75.598 151.759 74.884 152.035 74.104C152.323 73.324 152.467 72.706 152.467 72.25C152.407 71.302 152.305 70.588 152.161 70.108C152.545 69.964 152.935 69.892 153.331 69.892C153.739 69.892 154.075 70.018 154.339 70.27C154.615 70.522 154.753 70.858 154.753 71.278C154.753 77.83 153.553 81.76 151.153 83.068C150.613 83.356 150.001 83.5 149.317 83.5C148.633 83.5 148.033 83.32 147.517 82.96C147.013 82.6 146.761 82.096 146.761 81.448C146.761 81.016 146.923 80.65 147.247 80.35C147.571 80.062 147.955 79.918 148.399 79.918C148.495 79.918 148.615 79.93 148.759 79.954C148.723 80.11 148.705 80.248 148.705 80.368C148.705 81.424 149.071 81.952 149.803 81.952C150.247 81.952 150.649 81.712 151.009 81.232C151.369 80.752 151.657 80.164 151.873 79.468C152.293 78.052 152.503 76.768 152.503 75.616C152.143 76.588 151.651 77.374 151.027 77.974C150.415 78.562 149.749 78.856 149.029 78.856C147.577 78.856 146.851 77.908 146.851 76.012ZM174.751 67.228L174.661 70.198C174.661 71.83 174.709 73.294 174.805 74.59C174.901 75.874 175.117 77.272 175.453 78.784C175.189 79 174.769 79.108 174.193 79.108C173.077 79.108 172.519 78.622 172.519 77.65C172.519 76.846 172.555 75.616 172.627 73.96C172.711 72.304 172.753 71.008 172.753 70.072C172.105 71.008 171.421 72.166 170.701 73.546C169.993 74.914 169.639 75.754 169.639 76.066C169.639 76.378 169.669 76.618 169.729 76.786C169.465 76.954 169.111 77.038 168.667 77.038C168.235 77.038 167.869 76.918 167.569 76.678C167.281 76.438 167.035 76.108 166.831 75.688C166.639 75.268 166.291 74.446 165.787 73.222C165.295 71.986 164.845 70.924 164.437 70.036C164.125 71.968 163.969 73.678 163.969 75.166C163.969 76.654 164.017 77.86 164.113 78.784C163.729 78.928 163.345 79 162.961 79C162.193 79 161.809 78.616 161.809 77.848C161.809 77.26 161.941 76.09 162.205 74.338C162.481 72.574 162.619 71.086 162.619 69.874C162.619 68.662 162.553 67.528 162.421 66.472C163.069 66.304 163.573 66.22 163.933 66.22C164.593 66.22 165.037 66.454 165.265 66.922C165.625 67.678 166.153 68.884 166.849 70.54C167.557 72.184 168.133 73.45 168.577 74.338C168.697 74.086 168.973 73.546 169.405 72.718C169.849 71.878 170.215 71.164 170.503 70.576C170.803 69.976 171.103 69.268 171.403 68.452C171.715 67.624 171.913 66.904 171.997 66.292C172.429 66.172 172.849 66.112 173.257 66.112C173.677 66.112 174.031 66.202 174.319 66.382C174.607 66.562 174.751 66.844 174.751 67.228ZM185.412 70.522C185.088 71.902 184.926 73.288 184.926 74.68C184.926 76.06 185.082 77.428 185.394 78.784C184.962 78.928 184.518 79 184.062 79C183.606 79 183.288 78.868 183.108 78.604C182.928 78.328 182.838 77.938 182.838 77.434C182.838 76.918 182.916 76.216 183.072 75.328C182.22 77.152 181.398 78.304 180.606 78.784C180.246 79 179.874 79.108 179.49 79.108C178.578 79.108 177.87 78.772 177.366 78.1C176.862 77.416 176.61 76.57 176.61 75.562C176.61 74.026 177.036 72.682 177.888 71.53C178.74 70.366 179.844 69.784 181.2 69.784C182.568 69.784 183.972 70.03 185.412 70.522ZM183.054 71.602C182.418 71.41 181.878 71.314 181.434 71.314C180.534 71.314 179.862 71.512 179.418 71.908C179.01 72.916 178.806 73.942 178.806 74.986C178.806 75.538 178.89 76.096 179.058 76.66C179.238 77.224 179.508 77.506 179.868 77.506C180.288 77.506 180.828 76.888 181.488 75.652C182.148 74.416 182.67 73.066 183.054 71.602ZM195.383 71.728L195.203 75.688C195.203 76.78 195.371 77.848 195.707 78.892C195.371 79.036 194.987 79.108 194.555 79.108C193.535 79.108 193.025 78.538 193.025 77.398C193.025 76.882 193.091 76.018 193.223 74.806C193.355 73.582 193.421 72.814 193.421 72.502C193.421 71.902 193.151 71.602 192.611 71.602C192.215 71.602 191.765 71.89 191.261 72.466C190.769 73.03 190.343 73.666 189.983 74.374C189.635 75.07 189.431 75.646 189.371 76.102C189.419 77.038 189.539 77.932 189.731 78.784C189.347 78.928 188.945 79 188.525 79C188.117 79 187.781 78.904 187.517 78.712C187.265 78.508 187.139 78.232 187.139 77.884C187.139 77.524 187.193 76.888 187.301 75.976C187.409 75.052 187.463 74.14 187.463 73.24C187.463 72.328 187.325 71.284 187.049 70.108C187.433 69.964 187.841 69.892 188.273 69.892C188.705 69.892 189.053 70.018 189.317 70.27C189.593 70.522 189.731 70.834 189.731 71.206C189.731 71.578 189.683 72.172 189.587 72.988C190.043 72.136 190.637 71.392 191.369 70.756C192.101 70.108 192.833 69.784 193.565 69.784C194.777 69.784 195.383 70.432 195.383 71.728ZM205.767 70.522C205.443 71.902 205.281 73.288 205.281 74.68C205.281 76.06 205.437 77.428 205.749 78.784C205.317 78.928 204.873 79 204.417 79C203.961 79 203.643 78.868 203.463 78.604C203.283 78.328 203.193 77.938 203.193 77.434C203.193 76.918 203.271 76.216 203.427 75.328C202.575 77.152 201.753 78.304 200.961 78.784C200.601 79 200.229 79.108 199.845 79.108C198.933 79.108 198.225 78.772 197.721 78.1C197.217 77.416 196.965 76.57 196.965 75.562C196.965 74.026 197.391 72.682 198.243 71.53C199.095 70.366 200.199 69.784 201.555 69.784C202.923 69.784 204.327 70.03 205.767 70.522ZM203.409 71.602C202.773 71.41 202.233 71.314 201.789 71.314C200.889 71.314 200.217 71.512 199.773 71.908C199.365 72.916 199.161 73.942 199.161 74.986C199.161 75.538 199.245 76.096 199.413 76.66C199.593 77.224 199.863 77.506 200.223 77.506C200.643 77.506 201.183 76.888 201.843 75.652C202.503 74.416 203.025 73.066 203.409 71.602ZM213.47 71.602C212.834 71.41 212.204 71.314 211.58 71.314C210.956 71.314 210.368 71.5 209.816 71.872C209.384 72.736 209.168 73.654 209.168 74.626C209.168 75.19 209.246 75.742 209.402 76.282C209.558 76.81 209.816 77.074 210.176 77.074C210.584 77.074 211.13 76.492 211.814 75.328C212.498 74.164 213.05 72.922 213.47 71.602ZM210.77 81.952C211.538 81.952 212.138 81.688 212.57 81.16C213.002 80.632 213.218 79.954 213.218 79.126C213.218 78.718 213.188 78.124 213.128 77.344C213.08 76.564 213.05 76.012 213.038 75.688C212.186 77.176 211.442 78.088 210.806 78.424C210.482 78.592 210.14 78.676 209.78 78.676C208.88 78.676 208.184 78.322 207.692 77.614C207.2 76.906 206.954 76.042 206.954 75.022C206.954 73.63 207.386 72.412 208.25 71.368C209.126 70.312 210.23 69.784 211.562 69.784C212.906 69.784 214.262 70.018 215.63 70.486C215.27 71.77 215.09 73.03 215.09 74.266C215.09 74.854 215.132 75.586 215.216 76.462C215.3 77.326 215.342 77.968 215.342 78.388C215.342 79.864 214.874 81.082 213.938 82.042C213.002 83.014 211.802 83.5 210.338 83.5C209.474 83.5 208.73 83.332 208.106 82.996C207.494 82.672 207.188 82.162 207.188 81.466C207.188 81.034 207.35 80.668 207.674 80.368C207.998 80.068 208.382 79.918 208.826 79.918C208.922 79.918 209.042 79.93 209.186 79.954C209.15 80.11 209.132 80.248 209.132 80.368C209.132 80.8 209.294 81.172 209.618 81.484C209.942 81.796 210.326 81.952 210.77 81.952ZM218.902 74.914C218.902 75.778 219.04 76.462 219.316 76.966C219.592 77.458 220.054 77.704 220.702 77.704C221.35 77.704 221.854 77.488 222.214 77.056C222.586 76.612 222.772 76.078 222.772 75.454C223.18 75.454 223.534 75.556 223.834 75.76C224.134 75.964 224.284 76.246 224.284 76.606C224.284 77.35 223.888 77.974 223.096 78.478C222.304 78.97 221.47 79.216 220.594 79.216C219.226 79.216 218.236 78.85 217.624 78.118C217.012 77.374 216.706 76.276 216.706 74.824C216.706 73.372 217.114 72.154 217.93 71.17C218.758 70.174 219.856 69.676 221.224 69.676C222.16 69.676 222.91 69.892 223.474 70.324C224.05 70.744 224.338 71.404 224.338 72.304C224.338 73.192 223.93 73.864 223.114 74.32C222.31 74.764 221.326 74.986 220.162 74.986C219.754 74.986 219.334 74.962 218.902 74.914ZM218.92 73.492C219.28 73.564 219.658 73.6 220.054 73.6C220.918 73.6 221.644 73.438 222.232 73.114C222.304 72.826 222.34 72.598 222.34 72.43C222.34 72.01 222.19 71.692 221.89 71.476C221.59 71.26 221.176 71.152 220.648 71.152C220.132 71.152 219.664 71.32 219.244 71.656C219.028 72.28 218.92 72.892 218.92 73.492ZM228.682 78.784C228.31 78.928 227.914 79 227.494 79C227.074 79 226.732 78.904 226.468 78.712C226.216 78.508 226.09 78.232 226.09 77.884C226.09 77.524 226.144 76.876 226.252 75.94C226.36 75.004 226.414 74.098 226.414 73.222C226.414 72.334 226.276 71.296 226 70.108C226.384 69.964 226.762 69.892 227.134 69.892C227.506 69.892 227.824 70.018 228.088 70.27C228.364 70.522 228.502 70.858 228.502 71.278C228.502 71.494 228.466 71.818 228.394 72.25C228.322 72.67 228.28 72.988 228.268 73.204C228.736 72.136 229.288 71.302 229.924 70.702C230.572 70.09 231.214 69.784 231.85 69.784C232.294 69.784 232.648 69.94 232.912 70.252C233.176 70.564 233.308 70.96 233.308 71.44C233.308 71.908 233.188 72.292 232.948 72.592C232.708 72.88 232.408 73.024 232.048 73.024C231.7 73.024 231.418 72.988 231.202 72.916C231.238 72.772 231.256 72.64 231.256 72.52C231.256 72.028 231.082 71.782 230.734 71.782C230.206 71.782 229.708 72.316 229.24 73.384C228.784 74.44 228.478 75.43 228.322 76.354C228.382 77.254 228.502 78.064 228.682 78.784Z" fill="white"/>
</g>
<defs>
<filter id="filter0_d_13_97" x="92.443" y="17" width="219.471" height="73.768" filterUnits="userSpaceOnUse" color-interpolation-filters="sRGB">
<feFlood flood-opacity="0" result="BackgroundImageFix"/>
<feColorMatrix in="SourceAlpha" type="matrix" values="0 0 0 0 0 0 0 0 0 0 0 0 0 0 0 0 0 0 127 0" result="hardAlpha"/>
<feOffset dx="8" dy="8"/>
<feGaussianBlur stdDeviation="10"/>
<feComposite in2="hardAlpha" operator="out"/>
<feColorMatrix type="matrix" values="0 0 0 0 0 0 0 0 0 0 0 0 0 0 0 0 0 0 0.5 0"/>
<feBlend mode="normal" in2="BackgroundImageFix" result="effect1_dropShadow_13_97"/>
<feBlend mode="normal" in="SourceGraphic" in2="effect1_dropShadow_13_97" result="shape"/>
</filter>
<filter id="filter1_d_13_97" x="103.754" y="53.5" width="157.554" height="58" filterUnits="userSpaceOnUse" color-interpolation-filters="sRGB">
<feFlood flood-opacity="0" result="BackgroundImageFix"/>
<feColorMatrix in="SourceAlpha" type="matrix" values="0 0 0 0 0 0 0 0 0 0 0 0 0 0 0 0 0 0 127 0" result="hardAlpha"/>
<feOffset dx="8" dy="8"/>
<feGaussianBlur stdDeviation="10"/>
<feComposite in2="hardAlpha" operator="out"/>
<feColorMatrix type="matrix" values="0 0 0 0 0 0 0 0 0 0 0 0 0 0 0 0 0 0 0.5 0"/>
<feBlend mode="normal" in2="BackgroundImageFix" result="effect1_dropShadow_13_97"/>
<feBlend mode="normal" in="SourceGraphic" in2="effect1_dropShadow_13_97" result="shape"/>
</filter>
<clipPath id="clip0_13_97">
<rect width="94" height="102" fill="white"/>
</clipPath>
</defs>
</svg>
